<?xml version="1.0" standalone="no"?>
<!DOCTYPE svg PUBLIC "-//W3C//DTD SVG 20010904//EN"
 "http://www.w3.org/TR/2001/REC-SVG-20010904/DTD/svg10.dtd">
<svg version="1.0" xmlns="http://www.w3.org/2000/svg"
 width="130.000000pt" height="125.000000pt" viewBox="0 0 130.000000 125.000000"
 preserveAspectRatio="xMidYMid meet">

<g transform="translate(0.000000,125.000000) scale(0.100000,-0.100000)"
fill="#000000" stroke="none">
<path d="M0 625 l0 -625 650 0 650 0 0 625 0 625 -650 0 -650 0 0 -625z m1148
474 c28 -6 52 -13 52 -15 0 -3 -23 -48 -51 -100 -45 -84 -54 -95 -73 -89 -11
3 -75 8 -141 12 -322 15 -592 -111 -698 -326 -29 -60 -32 -74 -32 -161 0 -83
3 -102 27 -151 15 -30 45 -73 65 -94 30 -29 32 -35 13 -25 -44 23 -126 114
-153 170 -16 32 -31 85 -35 123 -35 289 190 544 568 642 126 33 326 39 458 14z
m-133 -361 c4 -3 -15 -45 -40 -92 -44 -81 -48 -86 -73 -79 -52 14 -235 7 -297
-11 -162 -48 -255 -146 -255 -268 0 -19 13 -62 29 -94 l30 -59 -39 43 c-59 65
-74 106 -75 192 0 60 5 86 26 130 58 125 206 219 384 244 42 6 303 1 310 -6z
m-152 -307 c4 -5 1 -24 -8 -43 l-17 -34 -112 0 c-100 1 -117 -2 -169 -26 -66
-31 -93 -75 -82 -135 8 -43 -2 -42 -21 2 -47 114 33 217 193 245 53 10 203 3
216 -9z"/>
</g>
</svg>
